<svg width="91" height="82" viewBox="0 0 91 82" fill="none" xmlns="http://www.w3.org/2000/svg">
<path d="M79.625 34.1666C79.625 58.0833 45.5 78.5833 45.5 78.5833C45.5 78.5833 11.375 58.0833 11.375 34.1666C11.375 26.0112 14.9703 18.1898 21.37 12.4231C27.7697 6.65635 36.4495 3.41663 45.5 3.41663C54.5505 3.41663 63.2303 6.65635 69.63 12.4231C76.0297 18.1898 79.625 26.0112 79.625 34.1666Z" stroke="#1E1E1E" stroke-width="4" stroke-linecap="round" stroke-linejoin="round"/>
<path d="M45.5 44.4166C51.7822 44.4166 56.875 39.8275 56.875 34.1666C56.875 28.5057 51.7822 23.9166 45.5 23.9166C39.2178 23.9166 34.125 28.5057 34.125 34.1666C34.125 39.8275 39.2178 44.4166 45.5 44.4166Z" stroke="#1E1E1E" stroke-width="4" stroke-linecap="round" stroke-linejoin="round"/>
</svg>
