<svg width="91" height="82" viewBox="0 0 91 82" fill="none" xmlns="http://www.w3.org/2000/svg">
<path d="M83.4169 57.81V68.06C83.4212 69.0116 83.2049 69.9534 82.7819 70.8253C82.3588 71.6971 81.7384 72.4798 80.9602 73.1231C80.1821 73.7663 79.2634 74.2561 78.2631 74.5609C77.2628 74.8658 76.2028 74.979 75.1511 74.8933C63.4835 73.751 52.276 70.1583 42.429 64.4042C33.2677 59.1584 25.5005 52.1594 19.679 43.9042C13.271 34.9908 9.28318 24.8426 8.03859 14.2817C7.94384 13.3369 8.06845 12.3846 8.40449 11.4856C8.74052 10.5865 9.28063 9.76036 9.99041 9.05971C10.7002 8.35906 11.5641 7.79926 12.5271 7.41596C13.4902 7.03265 14.5312 6.83423 15.584 6.83334H26.959C28.7991 6.81702 30.5831 7.40419 31.9783 8.48541C33.3735 9.56663 34.2848 11.0681 34.5423 12.71C35.0225 15.9902 35.9128 19.211 37.1965 22.3108C37.7067 23.5337 37.8171 24.8628 37.5147 26.1405C37.2122 27.4182 36.5097 28.5911 35.4903 29.52L30.6748 33.8592C36.0725 42.413 43.9322 49.4954 53.4248 54.3592L58.2403 50.02C59.2712 49.1014 60.5727 48.4683 61.9907 48.1958C63.4086 47.9233 64.8835 48.0228 66.2407 48.4825C69.6808 49.6392 73.255 50.4416 76.8953 50.8742C78.7371 51.1083 80.4192 51.9443 81.6217 53.2231C82.8242 54.5019 83.4631 56.1344 83.4169 57.81Z" stroke="#1E1E1E" stroke-width="4" stroke-linecap="round" stroke-linejoin="round"/>
</svg>
